<svg xmlns="http://www.w3.org/2000/svg" viewBox="0 0 1600 900" preserveAspectRatio="xMidYMid slice">
  <defs>
    <linearGradient id="bg" x1="0" y1="0" x2="1" y2="1">
      <stop offset="0%" stop-color="#05020c"/>
      <stop offset="50%" stop-color="#0f1026"/>
      <stop offset="100%" stop-color="#250c2b"/>
    </linearGradient>
    <radialGradient id="pink" cx="28%" cy="25%" r="56%">
      <stop offset="0%" stop-color="#f472b6" stop-opacity="0.28"/>
      <stop offset="100%" stop-color="#f472b6" stop-opacity="0"/>
    </radialGradient>
    <radialGradient id="cyan" cx="76%" cy="28%" r="58%">
      <stop offset="0%" stop-color="#22d3ee" stop-opacity="0.22"/>
      <stop offset="100%" stop-color="#22d3ee" stop-opacity="0"/>
    </radialGradient>
    <filter id="blur" x="-20%" y="-20%" width="140%" height="140%">
      <feGaussianBlur stdDeviation="12"/>
    </filter>
  </defs>
  <rect width="1600" height="900" fill="url(#bg)"/>
  <rect width="1600" height="900" fill="url(#pink)"/>
  <rect width="1600" height="900" fill="url(#cyan)"/>
  <g filter="url(#blur)">
    <circle cx="420" cy="250" r="180" fill="#f472b6" fill-opacity="0.14"/>
    <circle cx="1180" cy="240" r="210" fill="#22d3ee" fill-opacity="0.12"/>
    <circle cx="800" cy="690" r="260" fill="#a855f7" fill-opacity="0.08"/>
  </g>
  <g opacity="0.28" stroke="#fb7185" stroke-width="5">
    <path d="M0 720H1600"/>
    <path d="M0 650H1600"/>
    <path d="M0 580H1600"/>
    <path d="M0 510H1600"/>
    <path d="M0 440H1600"/>
    <path d="M0 370H1600"/>
    <path d="M0 300H1600"/>
  </g>
  <g opacity="0.85" stroke="#22d3ee" stroke-width="4" stroke-linecap="round">
    <path d="M130 120V840"/>
    <path d="M300 80V840"/>
    <path d="M500 120V840"/>
    <path d="M720 60V840"/>
    <path d="M980 120V840"/>
    <path d="M1180 80V840"/>
    <path d="M1410 120V840"/>
  </g>
  <g fill="#fff" opacity="0.9">
    <circle cx="190" cy="160" r="2.1"/>
    <circle cx="340" cy="120" r="1.5" opacity="0.82"/>
    <circle cx="540" cy="180" r="1.7" opacity="0.76"/>
    <circle cx="760" cy="130" r="1.3" opacity="0.8"/>
    <circle cx="920" cy="190" r="1.8" opacity="0.82"/>
    <circle cx="1130" cy="130" r="1.4" opacity="0.78"/>
    <circle cx="1350" cy="170" r="1.6" opacity="0.84"/>
    <circle cx="1540" cy="120" r="1.4" opacity="0.76"/>
  </g>
</svg>